<?xml version="1.0" encoding="utf-8"?>
<!-- Generator: Adobe Illustrator 28.0.0, SVG Export Plug-In . SVG Version: 6.00 Build 0)  -->
<svg version="1.1" id="Capa_1" xmlns="http://www.w3.org/2000/svg" xmlns:xlink="http://www.w3.org/1999/xlink" x="0px" y="0px"
	 viewBox="0 0 500 500" style="enable-background:new 0 0 500 500;" xml:space="preserve">
<style type="text/css">
	.st0{fill:#C6C6C6;}
</style>
<path class="st0" d="M435.3,158H65.6c-10.1,0-18.3,8.2-18.3,18.3v147.4c0,10.2,8.2,18.3,18.3,18.4h369.7c10.1,0,18.3-8.2,18.3-18.3
	V176.3C453.6,166.2,445.4,158,435.3,158z M444.5,324.7c0.1,4.5-3.7,8.2-8.2,8.2H64.7c-4.6,0-8.3-3.7-8.3-8.3V175.4
	c0-4.6,3.7-8.3,8.3-8.3h371.5c4.6,0,8.3,3.7,8.3,8.3V324.7z"/>
<g>
	<path class="st0" d="M171.6,274.9l-12-15.1h-4.9v14.5c0,3.6-1.9,5.8-5.6,5.8h-1.8c-3.5,0-5.4-2.5-5.4-7v-42.3
		c0-4.5,2.5-7.1,6.7-7.1h16.6c14.6,0,22.1,6.1,22.1,17.5c0,9-5.1,15.1-14.6,16.7l14.6,17.6c0.5,0.6-1.9,4.7-7.4,4.7
		C176.4,280.1,174.3,278.6,171.6,274.9z M154.6,250.5h9.8c6.9,0,10.1-3.2,10.1-8.4c0-5.5-3.5-8.4-10.4-8.4h-9.5L154.6,250.5
		L154.6,250.5z"/>
	<path class="st0" d="M225.1,274.9l-12-15.1h-4.9v14.5c0,3.6-1.9,5.8-5.6,5.8h-1.8c-3.5,0-5.4-2.5-5.4-7v-42.3
		c0-4.5,2.5-7.1,6.7-7.1h16.6c14.6,0,22.1,6.1,22.1,17.5c0,9-5.1,15.1-14.6,16.7l14.6,17.6c0.5,0.6-1.9,4.7-7.4,4.7
		C229.9,280.1,227.8,278.6,225.1,274.9z M208.1,250.5h9.8c6.9,0,10.1-3.2,10.1-8.4c0-5.5-3.5-8.4-10.4-8.4h-9.5L208.1,250.5
		L208.1,250.5z"/>
	<path class="st0" d="M249,274.3v-45.2c0-3.9,1.9-5.8,5.4-5.8h1.9c3.6,0,5.6,1.9,5.6,5.8v17.1h24.3v-17.1c0-3.9,1.9-5.8,5.4-5.8h1.8
		c3.7,0,5.6,1.9,5.6,5.8v45.2c0,3.8-1.9,5.8-5.6,5.8h-1.8c-3.5,0-5.4-2-5.4-5.8V257h-24.3v17.3c0,3.8-1.9,5.8-5.6,5.8h-1.9
		C250.9,280.1,249,278.2,249,274.3z"/>
	<path class="st0" d="M309,274.3v-45.2c0-3.9,1.9-5.8,5.4-5.8h1.9c3.6,0,5.6,1.9,5.6,5.8v17.1h24.3v-17.1c0-3.9,1.9-5.8,5.4-5.8h1.8
		c3.7,0,5.6,1.9,5.6,5.8v45.2c0,3.8-1.9,5.8-5.6,5.8h-1.8c-3.5,0-5.4-2-5.4-5.8V257h-24.3v17.3c0,3.8-1.9,5.8-5.6,5.8h-1.9
		C310.9,280.1,309,278.2,309,274.3z"/>
</g>
<g>
	<path class="st0" d="M433.4,2c17.2,0,33.4,6.7,45.6,19c12.2,12.2,19,28.4,19,45.6v366.9c0,17.2-6.7,33.4-19,45.6
		c-12.2,12.2-28.4,19-45.6,19H66.6c-17.2,0-33.4-6.7-45.6-19C8.7,466.8,2,450.6,2,433.4V66.6C2,49.4,8.7,33.2,21,21
		C33.2,8.7,49.4,2,66.6,2H433.4 M433.4,0H66.6C30,0,0,30,0,66.6v366.9C0,470,30,500,66.6,500h366.9c36.6,0,66.6-30,66.6-66.6V66.6
		C500,30,470,0,433.4,0L433.4,0z"/>
</g>
</svg>
